<?xml version="1.0" encoding="UTF-8"?>
<!DOCTYPE svg PUBLIC "-//W3C//DTD SVG 1.1//EN" "http://www.w3.org/Graphics/SVG/1.1/DTD/svg11.dtd">
<svg width="130mm" height="73mm" viewBox="0 0 13000 7300" version="1.1" xmlns="http://www.w3.org/2000/svg" stroke-width="28.222" stroke-linejoin="round" xml:space="preserve">
 <path fill="rgb(255,255,255)" stroke="none" d="M 6499,7250 L 6,7250 6,0 12991,0 12991,7250 6499,7250 Z"/>
 <path fill="none" stroke="rgb(179,179,179)" stroke-linejoin="round" d="M 7286,5976 L 2046,5976 2046,348 12527,348 12527,5976 7286,5976 Z"/>
 <path fill="none" stroke="rgb(179,179,179)" stroke-linejoin="round" d="M 2046,347 L 2046,5975"/>
 <path fill="none" stroke="rgb(179,179,179)" stroke-linejoin="round" d="M 3094,347 L 3094,5975"/>
 <path fill="none" stroke="rgb(179,179,179)" stroke-linejoin="round" d="M 4142,347 L 4142,5975"/>
 <path fill="none" stroke="rgb(179,179,179)" stroke-linejoin="round" d="M 5190,347 L 5190,5975"/>
 <path fill="none" stroke="rgb(179,179,179)" stroke-linejoin="round" d="M 6238,347 L 6238,5975"/>
 <path fill="none" stroke="rgb(179,179,179)" stroke-linejoin="round" d="M 7286,347 L 7286,5975"/>
 <path fill="none" stroke="rgb(179,179,179)" stroke-linejoin="round" d="M 8334,347 L 8334,5975"/>
 <path fill="none" stroke="rgb(179,179,179)" stroke-linejoin="round" d="M 9382,347 L 9382,5975"/>
 <path fill="none" stroke="rgb(179,179,179)" stroke-linejoin="round" d="M 10430,347 L 10430,5975"/>
 <path fill="none" stroke="rgb(179,179,179)" stroke-linejoin="round" d="M 11478,347 L 11478,5975"/>
 <path fill="none" stroke="rgb(179,179,179)" stroke-linejoin="round" d="M 12527,347 L 12527,5975"/>
 <path fill="none" stroke="rgb(179,179,179)" stroke-linejoin="round" d="M 12527,5975 L 2046,5975"/>
 <path fill="none" stroke="rgb(179,179,179)" stroke-linejoin="round" d="M 12527,5413 L 2046,5413"/>
 <path fill="none" stroke="rgb(179,179,179)" stroke-linejoin="round" d="M 12527,4850 L 2046,4850"/>
 <path fill="none" stroke="rgb(179,179,179)" stroke-linejoin="round" d="M 12527,4287 L 2046,4287"/>
 <path fill="none" stroke="rgb(179,179,179)" stroke-linejoin="round" d="M 12527,3724 L 2046,3724"/>
 <path fill="none" stroke="rgb(179,179,179)" stroke-linejoin="round" d="M 12527,3161 L 2046,3161"/>
 <path fill="none" stroke="rgb(179,179,179)" stroke-linejoin="round" d="M 12527,2598 L 2046,2598"/>
 <path fill="none" stroke="rgb(179,179,179)" stroke-linejoin="round" d="M 12527,2035 L 2046,2035"/>
 <path fill="none" stroke="rgb(179,179,179)" stroke-linejoin="round" d="M 12527,1473 L 2046,1473"/>
 <path fill="none" stroke="rgb(179,179,179)" stroke-linejoin="round" d="M 12527,910 L 2046,910"/>
 <path fill="none" stroke="rgb(179,179,179)" stroke-linejoin="round" d="M 12527,347 L 2046,347"/>
 <path fill="none" stroke="rgb(179,179,179)" stroke-linejoin="round" d="M 2046,6125 L 2046,5975"/>
 <path fill="none" stroke="rgb(179,179,179)" stroke-linejoin="round" d="M 2046,6125 L 2046,5975"/>
 <path fill="none" stroke="rgb(179,179,179)" stroke-linejoin="round" d="M 3094,6125 L 3094,5975"/>
 <path fill="none" stroke="rgb(179,179,179)" stroke-linejoin="round" d="M 3094,6125 L 3094,5975"/>
 <path fill="none" stroke="rgb(179,179,179)" stroke-linejoin="round" d="M 4142,6125 L 4142,5975"/>
 <path fill="none" stroke="rgb(179,179,179)" stroke-linejoin="round" d="M 4142,6125 L 4142,5975"/>
 <path fill="none" stroke="rgb(179,179,179)" stroke-linejoin="round" d="M 5190,6125 L 5190,5975"/>
 <path fill="none" stroke="rgb(179,179,179)" stroke-linejoin="round" d="M 5190,6125 L 5190,5975"/>
 <path fill="none" stroke="rgb(179,179,179)" stroke-linejoin="round" d="M 6238,6125 L 6238,5975"/>
 <path fill="none" stroke="rgb(179,179,179)" stroke-linejoin="round" d="M 6238,6125 L 6238,5975"/>
 <path fill="none" stroke="rgb(179,179,179)" stroke-linejoin="round" d="M 7286,6125 L 7286,5975"/>
 <path fill="none" stroke="rgb(179,179,179)" stroke-linejoin="round" d="M 7286,6125 L 7286,5975"/>
 <path fill="none" stroke="rgb(179,179,179)" stroke-linejoin="round" d="M 8334,6125 L 8334,5975"/>
 <path fill="none" stroke="rgb(179,179,179)" stroke-linejoin="round" d="M 8334,6125 L 8334,5975"/>
 <path fill="none" stroke="rgb(179,179,179)" stroke-linejoin="round" d="M 9382,6125 L 9382,5975"/>
 <path fill="none" stroke="rgb(179,179,179)" stroke-linejoin="round" d="M 9382,6125 L 9382,5975"/>
 <path fill="none" stroke="rgb(179,179,179)" stroke-linejoin="round" d="M 10430,6125 L 10430,5975"/>
 <path fill="none" stroke="rgb(179,179,179)" stroke-linejoin="round" d="M 10430,6125 L 10430,5975"/>
 <path fill="none" stroke="rgb(179,179,179)" stroke-linejoin="round" d="M 11478,6125 L 11478,5975"/>
 <path fill="none" stroke="rgb(179,179,179)" stroke-linejoin="round" d="M 11478,6125 L 11478,5975"/>
 <path fill="none" stroke="rgb(179,179,179)" stroke-linejoin="round" d="M 12527,6125 L 12527,5975"/>
 <path fill="none" stroke="rgb(179,179,179)" stroke-linejoin="round" d="M 12527,6125 L 12527,5975"/>
 <path fill="none" stroke="rgb(179,179,179)" stroke-linejoin="round" d="M 2046,5975 L 12527,5975"/>
 <path fill="none" stroke="rgb(179,179,179)" stroke-linejoin="round" d="M 1896,5975 L 2046,5975"/>
 <path fill="none" stroke="rgb(179,179,179)" stroke-linejoin="round" d="M 1896,5975 L 2046,5975"/>
 <path fill="none" stroke="rgb(179,179,179)" stroke-linejoin="round" d="M 1896,5413 L 2046,5413"/>
 <path fill="none" stroke="rgb(179,179,179)" stroke-linejoin="round" d="M 1896,5413 L 2046,5413"/>
 <path fill="none" stroke="rgb(179,179,179)" stroke-linejoin="round" d="M 1896,4850 L 2046,4850"/>
 <path fill="none" stroke="rgb(179,179,179)" stroke-linejoin="round" d="M 1896,4850 L 2046,4850"/>
 <path fill="none" stroke="rgb(179,179,179)" stroke-linejoin="round" d="M 1896,4287 L 2046,4287"/>
 <path fill="none" stroke="rgb(179,179,179)" stroke-linejoin="round" d="M 1896,4287 L 2046,4287"/>
 <path fill="none" stroke="rgb(179,179,179)" stroke-linejoin="round" d="M 1896,3724 L 2046,3724"/>
 <path fill="none" stroke="rgb(179,179,179)" stroke-linejoin="round" d="M 1896,3724 L 2046,3724"/>
 <path fill="none" stroke="rgb(179,179,179)" stroke-linejoin="round" d="M 1896,3161 L 2046,3161"/>
 <path fill="none" stroke="rgb(179,179,179)" stroke-linejoin="round" d="M 1896,3161 L 2046,3161"/>
 <path fill="none" stroke="rgb(179,179,179)" stroke-linejoin="round" d="M 1896,2597 L 2046,2597"/>
 <path fill="none" stroke="rgb(179,179,179)" stroke-linejoin="round" d="M 1896,2597 L 2046,2597"/>
 <path fill="none" stroke="rgb(179,179,179)" stroke-linejoin="round" d="M 1896,2034 L 2046,2034"/>
 <path fill="none" stroke="rgb(179,179,179)" stroke-linejoin="round" d="M 1896,2034 L 2046,2034"/>
 <path fill="none" stroke="rgb(179,179,179)" stroke-linejoin="round" d="M 1896,1472 L 2046,1472"/>
 <path fill="none" stroke="rgb(179,179,179)" stroke-linejoin="round" d="M 1896,1472 L 2046,1472"/>
 <path fill="none" stroke="rgb(179,179,179)" stroke-linejoin="round" d="M 1896,909 L 2046,909"/>
 <path fill="none" stroke="rgb(179,179,179)" stroke-linejoin="round" d="M 1896,909 L 2046,909"/>
 <path fill="none" stroke="rgb(179,179,179)" stroke-linejoin="round" d="M 1896,347 L 2046,347"/>
 <path fill="none" stroke="rgb(179,179,179)" stroke-linejoin="round" d="M 1896,347 L 2046,347"/>
 <path fill="none" stroke="rgb(179,179,179)" stroke-linejoin="round" d="M 2046,5975 L 2046,347"/>
 <path fill="none" stroke="rgb(0,69,134)" stroke-width="50" stroke-linejoin="round" d="M 2046,4041 L 2067,4093 2089,4143 2112,4213 2133,4248 2155,4303 2177,4387 2199,4446 2222,4479 2243,4536 2265,4583 2287,4657 2309,4728 2331,4766 2353,4816 2375,4883 2396,4935 2418,5000 2441,5053 2462,5100 2484,5135 2506,5202 2528,5259 2551,5308 2572,5380 2594,5426 2616,5468 2638,5519 2660,5565 2682,5618 2704,5677 2726,5746 2747,5779 2770,5837 2791,5865 2813,4320 2835,999 2857,1143 2880,1173 2901,1241 2923,1282 2945,1336 2967,1391 2989,1495 3011,1510 3033,1558 3055,1623 3077,1686 3098,1738 3121,1802 3142,1848 3164,1912 3186,1967 3208,2011 3230,2052 3252,2116 3274,2169 3296,2229 3318,2260 3340,2315 3362,2360 3384,2419 3406,2472 3427,2513 3449,2561 3471,2638 3493,2676 3515,2728 3537,2788 3559,2825 3581,2897 3603,2960 3625,2981 3647,3047 3669,3133 3691,3183 3713,3232 3735,3267 3756,3325 3778,3349 3800,3417 3822,3468 3844,3522 3866,3572 3888,3637 3910,3705 3932,3751 3954,3807 3976,3847 3998,3893 4020,3976 4042,4040 4064,4082 4085,4144 4107,4183 4129,4237 4151,4279 4173,4331 4195,4384 4217,4455 4239,4516 4261,4547 4283,4599 4305,4655 4327,4722 4349,4780 4371,4820 4393,4878 4414,4946 4436,4995 4458,5047 4480,5098 4502,5151 4524,5198 4546,5271 4568,5335 4590,5396 4613,5447 4634,5498 4656,5544 4678,5598 4700,5678 4722,5711 4744,5755 4765,5824 4787,5892 4809,5940 4831,3393 4854,3279 4875,3329 4897,3364 4919,3416 4941,3468 4963,3527 4985,3583 5007,3639 5029,3699 5051,3752 5073,3792 5094,3834 5116,3893 5138,3960 5160,4021 5183,4056 5204,4120 5226,4172 5248,4221 5270,4280 5292,4336 5314,4403 5336,4451 5358,4497 5380,4550 5402,4605 5423,4636 5445,4712 5467,4761 5489,4827 5512,4872 5533,4940 5555,4997 5577,5063 5599,5117 5622,5162 5643,5228 5665,5286 5687,5374 5709,5407 5731,5450 5753,5510 5774,5543 5796,5595 5818,5652 5840,5706 5863,5772 5884,5836 5906,5883 5928,5919 5950,3010 5972,3279 5994,3317 6016,3383 6038,3434 6060,3501 6082,3544 6104,3582 6125,3648 6147,3712 6169,3751 6191,3794 6213,3831 6235,3896 6257,3979 6279,4054 6301,4094 6323,4151 6345,4217 6367,4248 6389,4316 6411,4356 6432,4401 6455,4465 6476,4526 6498,4584 6519,4635 6541,4692 6564,4746 6585,4785 6607,4842 6629,4925 6651,5004 6673,5039 6695,5086 6717,5147 6739,5206 6760,5243 6783,5304 6804,5352 6826,5401 6848,5454 6870,5493 6893,5564 6914,5636 6936,5693 6958,5729 6980,5779 7002,5851 7024,5923 7046,5964 7068,3611 7090,3292 7111,3331 7134,3400 7155,3447 7177,3512 7199,3553 7221,3608 7244,3669 7265,3718 7287,3765 7309,3793 7331,3861 7353,3926 7375,4006 7397,4042 7419,4103 7441,4161 7462,4217 7485,4277 7506,4329 7528,4392 7550,4447 7572,4484 7594,4554 7616,4600 7638,4652 7660,4689 7682,4751 7704,4796 7726,4863 7748,4933 7769,4981 7791,5027 7813,5065 7835,5120 7857,5185 7879,5228 7901,5309 7923,5347 7945,5413 7967,5447 7989,5494 8011,5578 8033,5667 8055,5713 8077,5766 8099,5828 8120,5874 8142,5916 8164,5969 8186,3855 8208,3288 8230,3324 8252,3392 8274,3445 8296,3511 8318,3557 8340,3610 8362,3659 8384,3708 8406,3785 8428,3821 8450,3872 8471,3948 8494,4011 8515,4057 8537,4117 8559,4169 8581,4203 8603,4261 8625,4318 8647,4361 8669,4391 8691,4473 8713,4529 8735,4585 8757,4645 8779,4682 8800,4751 8822,4789 8844,4851 8866,4918 8888,4960 8910,5018 8932,5086 8954,5143 8977,5206 8998,5249 9020,5301 9042,5357 9064,5434 9086,5471 9108,5514 9130,5580 9151,5626 9173,5676 9195,5738 9217,5795 9239,5836 9261,5901 9283,5954 9305,4491 9327,3250 9349,3360 9371,3414 9393,3472 9415,3526 9437,3565 9459,3625 9480,3679 9502,3732 9524,3787 9546,3835 9568,3876 9590,3932 9612,3993 9634,4054 9656,4099 9678,4165 9700,4226 9722,4274 9744,4331 9766,4370 9788,4427 9809,4484 9831,4546 9853,4601 9875,4682 9897,4719 9919,4753 9941,4810 9963,4860 9985,4926 10008,4971 10029,5064 10051,5115 10073,5163 10095,5206 10117,5243 10139,5304 10160,5335 10182,5375 10204,5461 10226,5506 10249,5568 10270,5626 10292,5691 10314,5740 10336,5791 10358,5862 10380,5913 10402,5975 10424,3221 10446,905 10468,994 10490,1029 10511,1097 10533,1151 10555,1204 10577,1227 10599,1283 10621,1332 10643,1392 10665,1447 10687,1506 10709,1555 10731,1608 10753,1667 10775,1714 10797,1752 10819,1808 10841,1850 10862,1893 10884,1963 10906,1994 10928,2077 10950,2125 10972,2171 10994,2226 11016,2273 11038,2344 11060,2400 11082,2450 11104,2500 11126,2547 11148,2589 11169,2637 11191,2704 11213,2752 11235,2807 11257,2856 11279,2916 11301,2971 11323,3019 11345,3064 11367,3132 11390,3196 11411,3254 11433,3286 11455,3351 11477,3409 11499,3436 11521,3509 11542,3540 11564,3616 11586,3673 11608,3711 11631,3764 11652,3835 11674,3855 11696,3908 11718,3966 11740,4019 11762,4079 11784,4138 11806,4187 11827,4237 11849,4279 11871,4325 11893,4390 11915,4417 11937,4467 11959,4541"/>
 <text class="TextShape"><tspan class="TextParagraph" font-family="Liberation Sans, sans-serif" font-size="353px" font-weight="400"><tspan class="TextPosition" x="1950" y="6543"><tspan fill="rgb(0,0,0)" stroke="none">0</tspan></tspan></tspan></text>
 <text class="TextShape"><tspan class="TextParagraph" font-family="Liberation Sans, sans-serif" font-size="353px" font-weight="400"><tspan class="TextPosition" x="2903" y="6543"><tspan fill="rgb(0,0,0)" stroke="none">50</tspan></tspan></tspan></text>
 <text class="TextShape"><tspan class="TextParagraph" font-family="Liberation Sans, sans-serif" font-size="353px" font-weight="400"><tspan class="TextPosition" x="3856" y="6543"><tspan fill="rgb(0,0,0)" stroke="none">100</tspan></tspan></tspan></text>
 <text class="TextShape"><tspan class="TextParagraph" font-family="Liberation Sans, sans-serif" font-size="353px" font-weight="400"><tspan class="TextPosition" x="4904" y="6543"><tspan fill="rgb(0,0,0)" stroke="none">150</tspan></tspan></tspan></text>
 <text class="TextShape"><tspan class="TextParagraph" font-family="Liberation Sans, sans-serif" font-size="353px" font-weight="400"><tspan class="TextPosition" x="5952" y="6543"><tspan fill="rgb(0,0,0)" stroke="none">200</tspan></tspan></tspan></text>
 <text class="TextShape"><tspan class="TextParagraph" font-family="Liberation Sans, sans-serif" font-size="353px" font-weight="400"><tspan class="TextPosition" x="7001" y="6543"><tspan fill="rgb(0,0,0)" stroke="none">250</tspan></tspan></tspan></text>
 <text class="TextShape"><tspan class="TextParagraph" font-family="Liberation Sans, sans-serif" font-size="353px" font-weight="400"><tspan class="TextPosition" x="8049" y="6543"><tspan fill="rgb(0,0,0)" stroke="none">300</tspan></tspan></tspan></text>
 <text class="TextShape"><tspan class="TextParagraph" font-family="Liberation Sans, sans-serif" font-size="353px" font-weight="400"><tspan class="TextPosition" x="9097" y="6543"><tspan fill="rgb(0,0,0)" stroke="none">350</tspan></tspan></tspan></text>
 <text class="TextShape"><tspan class="TextParagraph" font-family="Liberation Sans, sans-serif" font-size="353px" font-weight="400"><tspan class="TextPosition" x="10145" y="6543"><tspan fill="rgb(0,0,0)" stroke="none">400</tspan></tspan></tspan></text>
 <text class="TextShape"><tspan class="TextParagraph" font-family="Liberation Sans, sans-serif" font-size="353px" font-weight="400"><tspan class="TextPosition" x="11193" y="6543"><tspan fill="rgb(0,0,0)" stroke="none">450</tspan></tspan></tspan></text>
 <text class="TextShape"><tspan class="TextParagraph" font-family="Liberation Sans, sans-serif" font-size="353px" font-weight="400"><tspan class="TextPosition" x="12242" y="6543"><tspan fill="rgb(0,0,0)" stroke="none">500</tspan></tspan></tspan></text>
 <text class="TextShape"><tspan class="TextParagraph" font-family="Liberation Sans, sans-serif" font-size="353px" font-weight="400"><tspan class="TextPosition" x="1309" y="6093"><tspan fill="rgb(0,0,0)" stroke="none">0,0</tspan></tspan></tspan></text>
 <text class="TextShape"><tspan class="TextParagraph" font-family="Liberation Sans, sans-serif" font-size="353px" font-weight="400"><tspan class="TextPosition" x="1309" y="5530"><tspan fill="rgb(0,0,0)" stroke="none">1,0</tspan></tspan></tspan></text>
 <text class="TextShape"><tspan class="TextParagraph" font-family="Liberation Sans, sans-serif" font-size="353px" font-weight="400"><tspan class="TextPosition" x="1309" y="4967"><tspan fill="rgb(0,0,0)" stroke="none">2,0</tspan></tspan></tspan></text>
 <text class="TextShape"><tspan class="TextParagraph" font-family="Liberation Sans, sans-serif" font-size="353px" font-weight="400"><tspan class="TextPosition" x="1309" y="4404"><tspan fill="rgb(0,0,0)" stroke="none">3,0</tspan></tspan></tspan></text>
 <text class="TextShape"><tspan class="TextParagraph" font-family="Liberation Sans, sans-serif" font-size="353px" font-weight="400"><tspan class="TextPosition" x="1309" y="3841"><tspan fill="rgb(0,0,0)" stroke="none">4,0</tspan></tspan></tspan></text>
 <text class="TextShape"><tspan class="TextParagraph" font-family="Liberation Sans, sans-serif" font-size="353px" font-weight="400"><tspan class="TextPosition" x="1309" y="3279"><tspan fill="rgb(0,0,0)" stroke="none">5,0</tspan></tspan></tspan></text>
 <text class="TextShape"><tspan class="TextParagraph" font-family="Liberation Sans, sans-serif" font-size="353px" font-weight="400"><tspan class="TextPosition" x="1309" y="2715"><tspan fill="rgb(0,0,0)" stroke="none">6,0</tspan></tspan></tspan></text>
 <text class="TextShape"><tspan class="TextParagraph" font-family="Liberation Sans, sans-serif" font-size="353px" font-weight="400"><tspan class="TextPosition" x="1309" y="2152"><tspan fill="rgb(0,0,0)" stroke="none">7,0</tspan></tspan></tspan></text>
 <text class="TextShape"><tspan class="TextParagraph" font-family="Liberation Sans, sans-serif" font-size="353px" font-weight="400"><tspan class="TextPosition" x="1309" y="1589"><tspan fill="rgb(0,0,0)" stroke="none">8,0</tspan></tspan></tspan></text>
 <text class="TextShape"><tspan class="TextParagraph" font-family="Liberation Sans, sans-serif" font-size="353px" font-weight="400"><tspan class="TextPosition" x="1309" y="1026"><tspan fill="rgb(0,0,0)" stroke="none">9,0</tspan></tspan></tspan></text>
 <text class="TextShape"><tspan class="TextParagraph" font-family="Liberation Sans, sans-serif" font-size="353px" font-weight="400"><tspan class="TextPosition" x="1119" y="464"><tspan fill="rgb(0,0,0)" stroke="none">10,0</tspan></tspan></tspan></text>
 <text class="TextShape"><tspan class="TextParagraph" font-family="Liberation Sans, sans-serif" font-size="318px" font-weight="400"><tspan class="TextPosition" x="6416" y="7092"><tspan fill="rgb(0,0,0)" stroke="none">Time [s]</tspan></tspan></tspan></text>
 <text class="TextShape" transform="translate(700,5884) rotate(-90) translate(-700,-5884)"><tspan class="TextParagraph" font-family="Liberation Sans, sans-serif" font-size="318px" font-weight="400"><tspan class="TextPosition" x="700" y="5884"><tspan fill="rgb(0,0,0)" stroke="none">Difference from base frequency [Hz]</tspan></tspan></tspan></text>
</svg>